<svg viewBox="0 0 128 128" fill="none" xmlns="http://www.w3.org/2000/svg">
  <rect width="128" height="128" rx="28" fill="#4f46e5"/>
  <rect x="16" y="16" width="96" height="96" rx="8" fill="white" opacity="0.95"/>
  <rect x="22" y="28" width="24" height="16" rx="3" fill="#4f46e5" opacity="0.2"/>
  <rect x="22" y="48" width="24" height="16" rx="3" fill="#4f46e5" opacity="0.35"/>
  <rect x="22" y="68" width="24" height="16" rx="3" fill="#4f46e5" opacity="0.5"/>
  <rect x="50" y="28" width="24" height="16" rx="3" fill="#4f46e5" opacity="0.2"/>
  <rect x="50" y="48" width="24" height="16" rx="3" fill="#4f46e5" opacity="0.35"/>
  <rect x="50" y="68" width="24" height="16" rx="3" fill="#4f46e5" opacity="0.5"/>
  <rect x="78" y="28" width="24" height="16" rx="3" fill="#4f46e5" opacity="0.2"/>
  <rect x="78" y="48" width="24" height="16" rx="3" fill="#4f46e5" opacity="0.35"/>
  <rect x="78" y="68" width="24" height="16" rx="3" fill="#4f46e5" opacity="0.5"/>
  <circle cx="100" cy="100" r="18" fill="#4f46e5"/>
  <polyline points="90,100 97,107 110,93" fill="none" stroke="white" stroke-width="5" stroke-linecap="round" stroke-linejoin="round"/>
</svg>
